<!DOCTYPE svg PUBLIC "-//W3C//DTD SVG 1.1//EN" "http://www.w3.org/Graphics/SVG/1.1/DTD/svg11.dtd">
<!-- Uploaded to: SVG Repo, www.svgrepo.com, Transformed by: SVG Repo Mixer Tools -->
<svg fill="#639c64" height="256px" width="256px" version="1.1" id="Layer_1" xmlns="http://www.w3.org/2000/svg" xmlns:xlink="http://www.w3.org/1999/xlink" viewBox="-12.8 -12.8 153.60 153.60" xml:space="preserve" stroke="#639c64" stroke-width="0.00128" transform="matrix(1, 0, 0, 1, 0, 0)rotate(0)">
<g id="SVGRepo_bgCarrier" stroke-width="0"/>
<g id="SVGRepo_tracerCarrier" stroke-linecap="round" stroke-linejoin="round" stroke="#CCCCCC" stroke-width="4.608"> <path d="M56.1,11.2c0-9.1,13.8-9.1,13.8,0.3v38.3L123.4,82v14.1L70.1,78.6v28.6l12.3,9.7V128l-19-5.9l-19,5.9v-11.2l12.2-9.7V78.6 L3.2,96.1V82l52.8-32.2V11.2z"/> </g>
<g id="SVGRepo_iconCarrier"> <path d="M56.1,11.2c0-9.1,13.8-9.1,13.8,0.3v38.3L123.4,82v14.1L70.1,78.6v28.6l12.3,9.7V128l-19-5.9l-19,5.9v-11.2l12.2-9.7V78.6 L3.2,96.1V82l52.8-32.2V11.2z"/> </g>
</svg>